<svg xmlns="http://www.w3.org/2000/svg" viewBox="0 0 300 22.78"><defs><style>.cls-1{fill:#fff;}</style></defs><title>logo-white</title><g id="Layer_2" data-name="Layer 2"><g id="Layer_1-2" data-name="Layer 1"><path class="cls-1" d="M7.82,17.54A7.17,7.17,0,0,0,7.59,19c0,.85.48,1,1.7,1.08l-.1.58c-1.09-.06-3-.09-4.73-.09S1,20.57,0,20.62L.12,20c1.64-.09,2.07-.38,2.56-2.5L6,3.09a6.76,6.76,0,0,0,.21-1.39C6.22.81,5.74.64,4.52.58L4.65,0c.93.06,2.65.09,4.47.09s3.49,0,4.75-.09l-.12.58C12,.67,11.63,1,11.15,3.09Z"/><path class="cls-1" d="M26.48,14.51a21.7,21.7,0,0,0-.61,2.39,35.26,35.26,0,0,0-.67,3.73c-1.72-.09-4-.09-5.72-.09s-6,0-8.89.09l.1-.58c1.72-.09,2.12-.38,2.61-2.5L16,6a6.76,6.76,0,0,0,.21-1.39c0-.88-.49-1.05-1.7-1.11l.12-.58c1,.06,2.86.09,4.78.09,1.68,0,3.25,0,4.43-.09l-.12.58c-1.75.09-2.12.37-2.61,2.5L18.4,17.54a8.36,8.36,0,0,0-.17,1.41c0,.85.4,1,1.37,1h.7c1.69,0,4.17-1.39,5.62-5.45Z"/><path class="cls-1" d="M42.42,14.51a21.7,21.7,0,0,0-.61,2.39,35.26,35.26,0,0,0-.67,3.73c-1.72-.09-4-.09-5.72-.09s-6,0-8.89.09l.1-.58c1.72-.09,2.12-.38,2.61-2.5L32,6a6.76,6.76,0,0,0,.21-1.39c0-.88-.49-1.05-1.7-1.11l.12-.58c1,.06,2.86.09,4.78.09,1.68,0,3.25,0,4.43-.09l-.12.58c-1.75.09-2.12.37-2.61,2.5L34.35,17.54a8.36,8.36,0,0,0-.17,1.41c0,.85.4,1,1.37,1h.7c1.69,0,4.17-1.39,5.62-5.45Z"/><path class="cls-1" d="M50.36,17.54A7.21,7.21,0,0,0,50.14,19c0,.85.48,1,1.7,1.08l-.1.58c-1.09-.06-3-.09-4.73-.09s-3.48,0-4.47.09l.12-.58c1.64-.09,2.07-.38,2.56-2.5L47.88,6a6.75,6.75,0,0,0,.21-1.39c0-.88-.49-1.05-1.7-1.11l.12-.58C47.44,3,49.16,3,51,3s3.48,0,4.75-.09l-.12.58c-1.75.09-2.14.37-2.61,2.5Z"/><path class="cls-1" d="M71,13c1-4,2.18-7.82,3.33-9.54a3.37,3.37,0,0,1,2.74-1.86,2.92,2.92,0,0,1,3,3.11,2.84,2.84,0,0,1-2.83,3.06A2,2,0,0,1,75,5.59,3.22,3.22,0,0,1,77.62,2.3.87.87,0,0,0,77,2.06c-1,0-1.59.74-2.15,1.61-1.48,2.42-3.11,7.81-5.07,17.1H69.2L62.14,7.45C60.92,13.3,59.48,19.16,58.22,21a3.43,3.43,0,0,1-2.7,1.83,2.94,2.94,0,0,1-3-3.13,2.84,2.84,0,0,1,2.83-3.06,2,2,0,0,1,2.26,2.16A3.22,3.22,0,0,1,55,22a.77.77,0,0,0,.63.21,2.79,2.79,0,0,0,2.17-1.61c1.35-2.29,2.78-8.15,4.3-15.77.07-1.14-.38-1.31-1.94-1.38l.12-.58c.53.06,1.36.09,2.25.09,1.26,0,2.35,0,3.31-.09Z"/><path class="cls-1" d="M78.71,14c0-5.15,4.63-11.51,11.58-11.51,4.56,0,7.74,2.25,7.74,7C98,14.68,93.4,21,86.45,21,81.9,21,78.71,18.79,78.71,14Zm5.49.41c0,4.39,1,6.09,2.47,6.09,3.42,0,5.88-5.83,5.88-11.39,0-4.39-1-6.09-2.48-6.09C86.65,3,84.21,8.86,84.21,14.42Z"/><path class="cls-1" d="M105.09,17.54a7.16,7.16,0,0,0-.22,1.42c0,.85.48,1,1.7,1.08l-.1.58c-1.09-.06-3-.09-4.73-.09s-3.48,0-4.47.09l.12-.58c1.64-.09,2.07-.38,2.56-2.5L102.6,6a6.75,6.75,0,0,0,.21-1.39c0-.88-.49-1.05-1.7-1.11l.12-.58c.94.06,2.65.09,4.48.09s3.48,0,4.75-.09l-.12.58c-1.75.09-2.14.37-2.61,2.5Z"/><path class="cls-1" d="M125.74,2.7a33.49,33.49,0,0,0-1.49,5.95h-.51A8.53,8.53,0,0,0,123.9,7a3.89,3.89,0,0,0-4-3.94c-1.93,0-2.83,1.17-2.83,2.45s.56,2.3,3.09,4.81c2.3,2.28,3.48,3.44,3.48,5.5,0,3.67-3.94,5.19-8,5.19a7.89,7.89,0,0,1-4.6-1.25,2.66,2.66,0,0,0-1.11-.53c-.41,0-.63.53-1,1.56h-.51a42.79,42.79,0,0,0,1.73-7h.51a12.72,12.72,0,0,0-.23,2.15c0,2.59,1.46,4.38,4.58,4.38a2.53,2.53,0,0,0,2.8-2.6c0-1.39-.73-2.62-2.8-4.59s-3.11-3.56-3.11-5.5c0-3.67,3.69-5.16,7.28-5.16a6.59,6.59,0,0,1,3.89,1.05c.36.23.94.7,1.27.7s.53-.5.85-1.55Z"/><path class="cls-1" d="M147.57,14.51A21.7,21.7,0,0,0,147,16.9a35.22,35.22,0,0,0-.67,3.73c-1.72-.09-4-.09-5.7-.09s-6,0-8.9.09l.1-.58c1.72-.09,2.12-.38,2.61-2.5l3.33-14.45a6.76,6.76,0,0,0,.21-1.39c0-.88-.48-1.05-1.7-1.11l.14-.58c1,.06,2.85.09,4.78.09,1.67,0,3.23,0,4.42-.09l-.12.58c-1.75.09-2.12.38-2.61,2.5l-3.33,14.45a7.31,7.31,0,0,0-.22,1.42c0,.84.47,1,1.65,1h.46c1.69,0,4.17-1.39,5.62-5.45Z"/><path class="cls-1" d="M163,18.18c.16,1.39.74,1.83,1.25,1.86l-.14.58c-1-.06-2.85-.09-4.27-.09-1.72,0-3.38,0-4.3.09l.12-.58c1.44-.07,2.21-.4,2.21-1.88a4.53,4.53,0,0,0,0-.57L157.47,14h-5.14l-2,2.83a3,3,0,0,0-.67,1.61c0,.8.69,1.37,2.37,1.62l-.11.58c-1.49-.06-2.65-.09-3.58-.09a13.7,13.7,0,0,0-1.65.09l.11-.58c1-.5,1.51-1.19,3.07-3.47L159.55,2.7c.32,0,.63.06,1,.06s.63,0,.94-.06Zm-6.21-10.6-4,5.82h4.67Z"/><path class="cls-1" d="M184.29,2.92c1.48.06,2.65.09,3.58.09a13.7,13.7,0,0,0,1.65-.09l-.11.58c-1,.5-1.77,1-3.09,3.46L179,20.77a7,7,0,0,0-1-.06,7.61,7.61,0,0,0-1,.06l-1.43-10.11-5.22,10.11a6.68,6.68,0,0,0-.94-.06,7.6,7.6,0,0,0-1,.06l-2.41-15.4c-.2-1.22-.61-1.86-1.16-1.86l.1-.58c1.14.06,2.2.09,3.74.09s3,0,3.77-.09l-.1.58c-.75.11-1,.6-1,1.28a7.05,7.05,0,0,0,.12,1.17l1.32,8.9,2.6-5.08-.62-4.41c-.15-1.49-.53-1.83-.89-1.86l.1-.58c1,.06,2.15.09,3.52.09,1.81,0,3.54,0,4.51-.09L182,3.5c-1.42.07-2,.31-2,1.49a5.92,5.92,0,0,0,.09,1l1.2,9.32,4.48-8.53A4.16,4.16,0,0,0,186.4,5c0-.74-.59-1.24-2.22-1.48Z"/><path class="cls-1" d="M212.65,17.1l-.11.38c-.65,2.45-2,3.56-4.42,3.56s-3.64-1.15-3.64-3.06a5.21,5.21,0,0,1,0-.74l.48-3.31a6.91,6.91,0,0,0,.07-1c0-1.32-.57-2.16-2.44-2.26l-1.57,6.86a7.39,7.39,0,0,0-.25,1.42c0,.7.4,1,1.7,1.08l-.1.58c-1.16-.06-2.7-.09-4.49-.09s-3.69,0-4.7.09l.1-.58c1.72-.09,2.12-.38,2.61-2.5l3.31-14.45a7.2,7.2,0,0,0,.22-1.37c0-.73-.4-1-1.69-1.14l.14-.58c1,.06,3,.09,4.3.09C204,.09,205,0,206.07,0c4.58,0,6.7,1.08,6.7,4,0,3.58-3.14,5.93-8,6.41,2.93.23,5.32.81,5.32,3.39a4.47,4.47,0,0,1,0,.68l-.43,3a4.9,4.9,0,0,0-.06.68c0,.78.3,1.12.81,1.12.72,0,1.19-.64,1.57-1.86l.12-.41Zm-9.89-6.93C205,10,207.69,8,207.69,3.44c0-2-.65-2.86-1.77-2.86-.69,0-1,.33-1.32,1.51Z"/><path class="cls-1" d="M216.25,2.92c2.91.09,7,.09,8.78.09,1.54,0,3.64,0,5.23-.09a28.09,28.09,0,0,0-1,3.43c-.15.71-.25,1.35-.33,1.81h-.56c0-.31,0-.6,0-.88,0-2.74-1.26-3.68-3.09-3.68h-.09c-1.67,0-2,.28-2.52,2.42l-1.26,5.42h.37c1.64,0,3.06-1.58,3.62-3.27H226c-.43,1.52-.58,2.33-.86,3.56s-.35,1.64-.65,3.56H224c0-1.34-.56-3.26-2.46-3.26h-.15l-1.28,5.53a7.31,7.31,0,0,0-.22,1.42c0,.84.47,1,1.65,1h.33c2.42,0,4.15-1.31,5.53-5.16h.56c-.17.53-.35,1.29-.53,2.1s-.47,2.25-.65,3.73c-1.72-.09-4-.09-5.72-.09s-5.86,0-8.79.09l.1-.58c1.72-.09,2.12-.38,2.6-2.5L217.62,6a6.76,6.76,0,0,0,.21-1.39c0-.88-.49-1.05-1.7-1.11Z"/><path class="cls-1" d="M244.11,2.92c1.49.06,2.65.09,3.59.09a13.63,13.63,0,0,0,1.64-.09l-.11.58c-1,.5-1.51,1.19-3.07,3.46l-9.51,13.81c-.32,0-.64,0-1,0s-.63,0-1,0l-1.67-15.4c-.15-1.39-.84-1.83-1.32-1.86l.14-.58c1,.06,2.68.09,4.25.09,1.81,0,3.31,0,4.3-.09l-.12.58c-1.42.07-2.06.34-2.06,1.75,0,.21,0,.44,0,.7l1.06,9.94,6.35-9.16a3.08,3.08,0,0,0,.67-1.62c0-.8-.69-1.35-2.36-1.61Z"/><path class="cls-1" d="M253.33,17.54a7.16,7.16,0,0,0-.22,1.42c0,.85.48,1,1.7,1.08l-.1.58c-1.09-.06-3-.09-4.73-.09s-3.48,0-4.47.09l.12-.58c1.64-.09,2.07-.38,2.56-2.5L250.85,6a6.75,6.75,0,0,0,.21-1.39c0-.88-.49-1.05-1.7-1.11l.12-.58c.94.06,2.65.09,4.48.09s3.48,0,4.75-.09l-.12.58c-1.75.09-2.14.37-2.61,2.5Z"/><path class="cls-1" d="M260.38,2.92c2.91.09,7,.09,8.78.09,1.54,0,3.64,0,5.23-.09a28.09,28.09,0,0,0-1,3.43c-.15.71-.25,1.35-.33,1.81h-.56c0-.31,0-.6,0-.88,0-2.74-1.26-3.68-3.09-3.68h-.09c-1.67,0-2,.28-2.52,2.42l-1.26,5.42H266c1.64,0,3.06-1.58,3.62-3.27h.56c-.43,1.52-.58,2.33-.86,3.56s-.35,1.64-.65,3.56h-.56c0-1.34-.56-3.26-2.46-3.26h-.15l-1.28,5.53A7.37,7.37,0,0,0,264,19c0,.84.47,1,1.65,1H266c2.42,0,4.15-1.31,5.53-5.16h.56c-.17.53-.35,1.29-.53,2.1s-.47,2.25-.65,3.73c-1.72-.09-4-.09-5.72-.09s-5.86,0-8.79.09l.1-.58c1.72-.09,2.12-.38,2.61-2.5L261.75,6A6.76,6.76,0,0,0,262,4.61c0-.88-.49-1.05-1.7-1.11Z"/><path class="cls-1" d="M294.77,2.92c1.48.06,2.65.09,3.58.09A13.7,13.7,0,0,0,300,2.92l-.11.58c-1,.5-1.77,1-3.09,3.46l-7.32,13.81a7,7,0,0,0-1-.06,7.61,7.61,0,0,0-1,.06l-1.43-10.11L280.9,20.77a6.68,6.68,0,0,0-.94-.06,7.61,7.61,0,0,0-1,.06l-2.41-15.4c-.2-1.22-.61-1.86-1.16-1.86l.1-.58c1.14.06,2.2.09,3.74.09s3,0,3.77-.09l-.1.58c-.75.11-1,.6-1,1.28a7.06,7.06,0,0,0,.12,1.17l1.32,8.9L286,9.77l-.62-4.41c-.15-1.49-.53-1.83-.89-1.86l.1-.58c1,.06,2.15.09,3.52.09,1.81,0,3.54,0,4.51-.09l-.11.58c-1.42.07-2,.31-2,1.49a5.92,5.92,0,0,0,.09,1l1.2,9.32,4.48-8.53a4.17,4.17,0,0,0,.6-1.75c0-.74-.59-1.24-2.22-1.48Z"/></g></g></svg>